<svg class="thumb" width="1000" height="1000" viewBox="0,0,600,600" xmlns="http://www.w3.org/2000/svg" xmlns:inkscape="http://www.inkscape.org/namespaces/inkscape" xmlns:sodipodi="http://sodipodi.sourceforge.net/DTD/sodipodi-0.dtd" xmlns:xlink="http://www.w3.org/1999/xlink" xmlns:ns1="http://www.inkscape.org/namespaces/inkscape" xmlns:sketch="http://www.bohemiancoding.com/sketch/ns">
  <defs></defs>
  <g transform="matrix(1.0478,0,0,1.0478,-69.9723,93.9101)">
    <g transform="matrix(4.1063,0,0,4.1063,369.5457,113.4688)">
      <svg width="10" height="10" viewBox="54.446,51.853,10,10">
        <defs>
          <linearGradient x1="0" y1="0.5" x2="1" y2="0.5">
            <stop offset="0%" stop-color="#000000"></stop>
            <stop offset="100%" stop-color="#000000"></stop>
          </linearGradient>
        </defs>
        <g></g>
        <g></g>
        <g></g>
      </svg>
    </g>
    <g transform="matrix(4.1063,0,0,4.1063,258.5457,14.4688)">
      <svg width="10" height="10" viewBox="27.320999999999998,27.463,10,10">
        <defs>
          <linearGradient x1="0" y1="0.5" x2="1" y2="0.5">
            <stop offset="0%" stop-color="#000000"></stop>
            <stop offset="100%" stop-color="#000000"></stop>
          </linearGradient>
        </defs>
        <g></g>
        <g></g>
        <g></g>
      </svg>
    </g>
    <g transform="matrix(4.1063,0,0,4.1063,357.5457,129.4688)">
      <svg width="10" height="10" viewBox="51.341,55.469,10,10">
        <defs>
          <linearGradient x1="0" y1="0.5" x2="1" y2="0.5">
            <stop offset="0%" stop-color="#000000"></stop>
            <stop offset="100%" stop-color="#000000"></stop>
          </linearGradient>
        </defs>
        <g></g>
        <g></g>
        <g></g>
      </svg>
    </g>
    <g transform="matrix(4.1063,0,0,4.1063,280.5176,0.6625)">
      <svg width="67.46799999999999" height="44.81700000000001" viewBox="32.186,23.642,67.46799999999999,44.81700000000001">
        <defs>
          <linearGradient x1="0" y1="0.5" x2="1" y2="0.5" id="linearGradientSkgu6doxmm">
            <stop offset="0%" stop-color="#e5d80e"></stop>
            <stop offset="100%" stop-color="#e5d80e"></stop>
          </linearGradient>
        </defs>
        <g></g>
        <g></g>
        <g>
          <polygon points="70.717,48.864 37.186,63.459 51.035,62.554 75.11,55.306 94.654,28.642 " stroke="none" fill="url('#linearGradientSkgu6doxmm')" style=""></polygon>
        </g>
      </svg>
    </g>
    <g transform="matrix(4.1063,0,0,4.1063,192.6332,109.0437)">
      <svg width="46.769000000000005" height="18.315999999999995" viewBox="11.535,50.337,46.769000000000005,18.315999999999995">
        <defs>
          <linearGradient x1="0" y1="0.5" x2="1" y2="0.5" id="linearGradientSkgu6doxms">
            <stop offset="0%" stop-color="#e5d80e"></stop>
            <stop offset="100%" stop-color="#e5d80e"></stop>
          </linearGradient>
        </defs>
        <g></g>
        <g></g>
        <g>
          <polygon points="53.304,55.337 22.236,59.124 20.418,60.386 16.535,61.647 17.312,63.653 17.836,62.748 19.972,62.748   35.044,63.378 " stroke="none" fill="url('#linearGradientSkgu6doxms')" style=""></polygon>
        </g>
      </svg>
    </g>
    <g transform="matrix(4.1063,0,0,4.1063,147.7395,10.0875)">
      <svg width="44.967" height="36.43" viewBox="0.3460000000000001,26.359,44.967,36.43">
        <defs>
          <linearGradient x1="0" y1="0.5" x2="1" y2="0.5" id="linearGradientSkgu6doxmy">
            <stop offset="0%" stop-color="#e5d80e"></stop>
            <stop offset="100%" stop-color="#e5d80e"></stop>
          </linearGradient>
        </defs>
        <g></g>
        <g></g>
        <g>
          <polygon points="40.313,55.834 24.544,57.789 10.079,46.989 5.346,31.359 15.474,44.563 " stroke="none" fill="url('#linearGradientSkgu6doxmy')" style=""></polygon>
        </g>
      </svg>
    </g>
    <g transform="matrix(4.1063,0,0,4.1063,229.2614,144.0969)">
      <svg width="53.926" height="17.729000000000006" viewBox="19.593,58.629,53.926,17.729000000000006">
        <defs>
          <linearGradient x1="0" y1="0.5" x2="1" y2="0.5" id="linearGradientSkgu6doxm14">
            <stop offset="0%" stop-color="#1761a0"></stop>
            <stop offset="100%" stop-color="#1761a0"></stop>
          </linearGradient>
        </defs>
        <g></g>
        <g></g>
        <g>
          <polygon points="51.386,63.629 36.889,64.438 34.883,64.414 24.593,63.841 39.177,67.423 48.586,66.72 46.451,68.637 49.94,71.023   50.633,66.574 51.918,71.358 55.798,71.05 52.211,66.282 58.232,70.481 62.221,69.394 54.006,65.7 63.975,68.763 68.519,66.355 " stroke="none" fill="url('#linearGradientSkgu6doxm14')" style=""></polygon>
        </g>
      </svg>
    </g>
    <g transform="matrix(2.0176,0.3922,-0.3922,2.0176,374.1143,79.4737)">
      <svg width="67.46799999999999" height="44.81700000000001" viewBox="32.186,23.642,67.46799999999999,44.81700000000001">
        <defs>
          <linearGradient x1="0" y1="0.5" x2="1" y2="0.5" id="linearGradientSkgu6doxm1a">
            <stop offset="0%" stop-color="#e5d80e"></stop>
            <stop offset="100%" stop-color="#e5d80e"></stop>
          </linearGradient>
        </defs>
        <g></g>
        <g></g>
        <g>
          <polygon points="70.717,48.864 37.186,63.459 51.035,62.554 75.11,55.306 94.654,28.642 " stroke="none" fill="url('#linearGradientSkgu6doxm1a')" style=""></polygon>
        </g>
      </svg>
    </g>
    <g transform="matrix(0.9786,0,0,0.9786,202.6868,215.5641)">
      <svg width="306.640625" height="180" style="overflow: visible;">
        <defs>
          <linearGradient x1="0" y1="0.5" x2="1" y2="0.5" id="linearGradientSkgu6doxm1m">
            <stop offset="0%" stop-color="#1761a0"></stop>
            <stop offset="100%" stop-color="#1761a0"></stop>
          </linearGradient>
        </defs>
        <g transform="matrix(1,0,0,1,0,90)">
          <path d="M 49.02 0L 9.77 0L 9.77-71.29L 19.04-75.68L 19.53-75.68L 19.53-8.89L 52.98-8.89L 52.98-8.4L 49.02 0ZM 68.84640625-8.79L 68.84640625-8.79L 79.10640624999999-8.79Q 83.98640625-8.79  83.98640625-14.65L 83.98640625-14.65L 83.98640625-21.34Q 83.98640625-27.2  79.10640624999999-27.2L 79.10640624999999-27.2L 68.84640625-27.2Q 63.96640625-27.2  63.96640625-21.34L 63.96640625-21.34L 63.96640625-14.65Q 63.96640625-8.79  68.84640625-8.79ZM 79.10640624999999 0L 68.84640625 0Q 54.19640625 0  54.19640625-14.65L 54.19640625-14.65L 54.19640625-21.34Q 54.19640625-35.99  68.84640625-35.99L 68.84640625-35.99L 79.10640624999999-35.99Q 81.63640625-35.99  83.98640625-34.52L 83.98640625-34.52L 83.98640625-39.06Q 83.98640625-44.92  79.10640624999999-44.92L 79.10640624999999-44.92L 61.61640625-44.92L 61.61640625-45.41L 65.52640625000001-53.71L 79.10640624999999-53.71Q 93.74640625-53.71  93.74640625-39.06L 93.74640625-39.06L 93.74640625-2.44L 84.47640625 1.95L 83.98640625 1.95L 83.98640625-1.46Q 82.12640625 0  79.10640624999999 0L 79.10640624999999 0ZM 134.27421875 0L 123.04421874999997 0Q 108.39421874999996 0  108.39421874999996-14.65L 108.39421874999996-14.65L 108.39421874999996-51.27L 117.67421874999997-55.66L 118.16421874999997-55.66L 118.16421874999997-14.65Q 118.16421874999997-8.79  123.04421874999997-8.79L 123.04421874999997-8.79L 134.27421875-8.79Q 139.16421874999997-8.79  139.16421874999997-14.65L 139.16421874999997-14.65L 139.16421874999997-51.27L 148.43421874999996-55.66L 148.92421874999997-55.66L 148.92421874999997-14.65Q 148.92421874999997-8.79  153.80421874999996-8.79L 153.80421874999996-8.79L 165.03421874999998-8.79Q 169.92421874999997-8.79  169.92421874999997-14.65L 169.92421874999997-14.65L 169.92421874999997-51.27L 179.20421874999997-55.66L 179.68421874999996-55.66L 179.68421874999996-14.65Q 179.68421874999996 0  165.03421874999998 0L 165.03421874999998 0L 153.80421874999996 0Q 147.07421874999997 0  144.04421874999997-3.61L 144.04421874999997-3.61Q 140.82421874999997 0  134.27421875 0L 134.27421875 0ZM 197.26171875 1.95L 196.78171875 1.95L 196.78171875-71.29L 206.05171875-75.68L 206.54171875-75.68L 206.54171875-2.44L 197.26171875 1.95ZM 249.50859375 0L 238.27859375 0Q 223.62859375 0  223.62859375-14.65L 223.62859375-14.65L 223.62859375-39.06Q 223.62859375-53.71  238.27859375-53.71L 238.27859375-53.71L 249.50859375-53.71Q 264.15859375-53.71  264.15859375-39.06L 264.15859375-39.06L 264.15859375-36.47L 233.54859375-12.79Q 234.22859375000002-8.79  238.27859375-8.79L 238.27859375-8.79L 249.50859375-8.79Q 254.39859375-8.79  254.39859375-14.65L 254.39859375-14.65L 254.39859375-17.24L 263.66859375-21.63L 264.15859375-21.63L 264.15859375-14.65Q 264.15859375 0  249.50859375 0L 249.50859375 0ZM 233.39859375-39.06L 233.39859375-23L 254.34859375-39.89Q 254.04859375-44.92  249.50859375-44.92L 249.50859375-44.92L 238.27859375-44.92Q 233.39859375-44.92  233.39859375-39.06L 233.39859375-39.06ZM 279.294375 1.95L 278.804375 1.95L 278.804375-39.06Q 278.804375-53.71  293.454375-53.71L 293.454375-53.71L 305.664375-53.71L 305.664375-53.22L 301.754375-44.92L 293.454375-44.92Q 288.574375-44.92  288.574375-39.06L 288.574375-39.06L 288.574375-2.44L 279.294375 1.95Z" data-textpath="Lawler" data-text-anchor="middle" data-font-size="100" data-letterspacing="0" data-side="left" data-offset="0.5" data-dx="0" data-dy="0" data-xmlspace="preserve" data-href="" data-font="Nova Square" data-font-src="/Content/clientfonts/novasquare.woff" data-font-scale="contain" transform="translate(0,0)" data-x="0" data-y="0" fill="url('#linearGradientSkgu6doxm1m')"></path>
        </g>
      </svg>
    </g>
    <g transform="matrix(0.7254,0,0,0.7254,88.3231,305.4763)">
      <svg width="729.00390625" height="180" style="overflow: visible;">
        <defs>
          <linearGradient x1="0" y1="0.5" x2="1" y2="0.5" id="linearGradientSkgu6doxm1p">
            <stop offset="0%" stop-color="#e5d80e"></stop>
            <stop offset="100%" stop-color="#e5d80e"></stop>
          </linearGradient>
        </defs>
        <g transform="matrix(1,0,0,1,0,90)">
          <path d="M 10.25 1.95L 9.77 1.95L 9.77-71.29L 19.04-75.68L 19.53-75.68L 19.53-2.44L 10.25 1.95ZM 37.10687500000001 1.95L 36.61687500000001 1.95L 36.61687500000001-39.06Q 36.61687500000001-53.71  51.266875000000006-53.71L 51.266875000000006-53.71L 62.49687500000001-53.71Q 77.14687500000001-53.71  77.14687500000001-39.06L 77.14687500000001-39.06L 77.14687500000001-2.44L 67.86687500000001 1.95L 67.386875 1.95L 67.386875-39.06Q 67.386875-44.92  62.49687500000001-44.92L 62.49687500000001-44.92L 51.266875000000006-44.92Q 46.386875-44.92  46.386875-39.06L 46.386875-39.06L 46.386875-2.44L 37.10687500000001 1.95ZM 92.28265624999997 1.95L 91.79265624999996 1.95L 91.79265624999996-39.06Q 91.79265624999996-53.71  106.44265624999997-53.71L 106.44265624999997-53.71L 117.67265624999997-53.71Q 132.32265624999997-53.71  132.32265624999997-39.06L 132.32265624999997-39.06L 132.32265624999997-2.44L 123.04265624999996 1.95L 122.56265624999997 1.95L 122.56265624999997-39.06Q 122.56265624999997-44.92  117.67265624999997-44.92L 117.67265624999997-44.92L 106.44265624999997-44.92Q 101.56265624999997-44.92  101.56265624999997-39.06L 101.56265624999997-39.06L 101.56265624999997-2.44L 92.28265624999997 1.95ZM 161.61843749999994-8.79L 161.61843749999994-8.79L 172.84843749999993-8.79Q 177.73843749999995-8.79  177.73843749999995-14.65L 177.73843749999995-14.65L 177.73843749999995-39.06Q 177.73843749999995-44.92  172.84843749999993-44.92L 172.84843749999993-44.92L 161.61843749999994-44.92Q 156.73843749999995-44.92  156.73843749999995-39.06L 156.73843749999995-39.06L 156.73843749999995-14.65Q 156.73843749999995-8.79  161.61843749999994-8.79ZM 172.84843749999993 0L 161.61843749999994 0Q 146.96843749999994 0  146.96843749999994-14.65L 146.96843749999994-14.65L 146.96843749999994-39.06Q 146.96843749999994-53.71  161.61843749999994-53.71L 161.61843749999994-53.71L 172.84843749999993-53.71Q 187.49843749999994-53.71  187.49843749999994-39.06L 187.49843749999994-39.06L 187.49843749999994-14.65Q 187.49843749999994 0  172.84843749999993 0L 172.84843749999993 0ZM 214.16281249999992 1.95L 213.6728124999999 1.95L 194.8228124999999-51.66L 203.27281249999993-55.66L 203.7628124999999-55.66L 217.5828124999999-14.94L 231.1028124999999-55.66L 231.59281249999992-55.66L 240.0428124999999-51.66L 222.6028124999999-2.05L 214.16281249999992 1.95ZM 259.5690625-8.79L 259.5690625-8.79L 269.82906249999996-8.79Q 274.70906249999996-8.79  274.70906249999996-14.65L 274.70906249999996-14.65L 274.70906249999996-21.34Q 274.70906249999996-27.2  269.82906249999996-27.2L 269.82906249999996-27.2L 259.5690625-27.2Q 254.68906249999995-27.2  254.68906249999995-21.34L 254.68906249999995-21.34L 254.68906249999995-14.65Q 254.68906249999995-8.79  259.5690625-8.79ZM 269.82906249999996 0L 259.5690625 0Q 244.91906249999994 0  244.91906249999994-14.65L 244.91906249999994-14.65L 244.91906249999994-21.34Q 244.91906249999994-35.99  259.5690625-35.99L 259.5690625-35.99L 269.82906249999996-35.99Q 272.35906249999994-35.99  274.70906249999996-34.52L 274.70906249999996-34.52L 274.70906249999996-39.06Q 274.70906249999996-44.92  269.82906249999996-44.92L 269.82906249999996-44.92L 252.33906249999995-44.92L 252.33906249999995-45.41L 256.2490624999999-53.71L 269.82906249999996-53.71Q 284.46906249999995-53.71  284.46906249999995-39.06L 284.46906249999995-39.06L 284.46906249999995-2.44L 275.19906249999997 1.95L 274.70906249999996 1.95L 274.70906249999996-1.46Q 272.84906249999995 0  269.82906249999996 0L 269.82906249999996 0ZM 306.0568749999999 1.95L 305.56687499999987 1.95L 305.56687499999987-44.82L 293.0168749999999-44.82L 293.0168749999999-45.31L 296.9768749999999-53.71L 305.56687499999987-53.71L 305.56687499999987-71.29L 314.8468749999999-75.68L 315.3368749999999-75.68L 315.3368749999999-53.71L 327.87687499999987-53.71L 327.87687499999987-53.22L 323.9268749999999-44.82L 315.3368749999999-44.82L 315.3368749999999-2.44L 306.0568749999999 1.95ZM 339.6015624999999-64.5Q 337.8915624999999-66.26  337.8915624999999-68.73Q 337.8915624999999-71.19  339.6015624999999-72.95Q 341.31156249999987-74.71  343.75156249999986-74.71Q 346.19156249999986-74.71  347.9015624999999-72.95Q 349.6115624999999-71.19  349.6115624999999-68.73Q 349.6115624999999-66.26  347.9015624999999-64.5Q 346.19156249999986-62.74  343.75156249999986-62.74Q 341.31156249999987-62.74  339.6015624999999-64.5ZM 339.3515624999999 1.95L 338.87156249999987 1.95L 338.87156249999987-51.27L 348.1415624999999-55.66L 348.63156249999986-55.66L 348.63156249999986-2.44L 339.3515624999999 1.95ZM 380.3684374999999-8.79L 380.3684374999999-8.79L 391.59843749999993-8.79Q 396.4884374999999-8.79  396.4884374999999-14.65L 396.4884374999999-14.65L 396.4884374999999-39.06Q 396.4884374999999-44.92  391.59843749999993-44.92L 391.59843749999993-44.92L 380.3684374999999-44.92Q 375.4884374999999-44.92  375.4884374999999-39.06L 375.4884374999999-39.06L 375.4884374999999-14.65Q 375.4884374999999-8.79  380.3684374999999-8.79ZM 391.59843749999993 0L 380.3684374999999 0Q 365.71843749999994 0  365.71843749999994-14.65L 365.71843749999994-14.65L 365.71843749999994-39.06Q 365.71843749999994-53.71  380.3684374999999-53.71L 380.3684374999999-53.71L 391.59843749999993-53.71Q 406.24843749999997-53.71  406.24843749999997-39.06L 406.24843749999997-39.06L 406.24843749999997-14.65Q 406.24843749999997 0  391.59843749999993 0L 391.59843749999993 0ZM 421.3842187499999 1.95L 420.8942187499999 1.95L 420.8942187499999-39.06Q 420.8942187499999-53.71  435.5442187499999-53.71L 435.5442187499999-53.71L 446.7742187499999-53.71Q 461.4242187499999-53.71  461.4242187499999-39.06L 461.4242187499999-39.06L 461.4242187499999-2.44L 452.1442187499999 1.95L 451.6642187499999 1.95L 451.6642187499999-39.06Q 451.6642187499999-44.92  446.7742187499999-44.92L 446.7742187499999-44.92L 435.5442187499999-44.92Q 430.66421874999986-44.92  430.66421874999986-39.06L 430.66421874999986-39.06L 430.66421874999986-2.44L 421.3842187499999 1.95ZM 500.4899999999999 0L 489.2599999999999 0Q 474.6099999999999 0  474.6099999999999-14.65L 474.6099999999999-14.65L 474.6099999999999-16.41L 483.8899999999999-20.8L 484.3799999999999-20.8L 484.3799999999999-14.65Q 484.3799999999999-8.79  489.2599999999999-8.79L 489.2599999999999-8.79L 500.4899999999999-8.79Q 505.3699999999999-8.79  505.3699999999999-14.65L 505.3699999999999-14.65L 505.3699999999999-18.51Q 505.3699999999999-24.37  500.4899999999999-24.37L 500.4899999999999-24.37L 491.3099999999999-24.37Q 476.6599999999999-24.37  476.6599999999999-39.06L 476.6599999999999-39.06Q 476.6599999999999-53.71  491.3099999999999-53.71L 491.3099999999999-53.71L 497.01999999999987-53.71Q 511.6699999999999-53.71  511.6699999999999-41.89L 511.6699999999999-41.89L 502.3899999999999-37.5L 501.89999999999986-37.5L 501.89999999999986-39.06Q 501.89999999999986-44.92  497.01999999999987-44.92L 497.01999999999987-44.92L 491.3099999999999-44.92Q 486.4299999999999-44.92  486.4299999999999-39.06L 486.4299999999999-39.06Q 486.4299999999999-33.15  491.3099999999999-33.15L 491.3099999999999-33.15L 500.4899999999999-33.15Q 515.1399999999999-33.15  515.1399999999999-18.51L 515.1399999999999-18.51L 515.1399999999999-14.65Q 515.1399999999999 0  500.4899999999999 0L 500.4899999999999 0ZM 570.3085937500001 1.95L 569.8285937500001 1.95L 569.8285937500001-71.29L 579.0985937500001-75.68L 579.5885937500001-75.68L 579.5885937500001-2.44L 570.3085937500001 1.95ZM 597.1654687500001 1.95L 596.6754687500002 1.95L 596.6754687500002-39.06Q 596.6754687500002-53.71  611.3254687500001-53.71L 611.3254687500001-53.71L 622.5554687500002-53.71Q 637.2054687500001-53.71  637.2054687500001-39.06L 637.2054687500001-39.06L 637.2054687500001-2.44L 627.9254687500002 1.95L 627.4454687500001 1.95L 627.4454687500001-39.06Q 627.4454687500001-44.92  622.5554687500002-44.92L 622.5554687500002-44.92L 611.3254687500001-44.92Q 606.4454687500001-44.92  606.4454687500001-39.06L 606.4454687500001-39.06L 606.4454687500001-2.44L 597.1654687500001 1.95ZM 677.7312500000002 0L 666.5012500000001 0Q 651.8512500000002 0  651.8512500000002-14.65L 651.8512500000002-14.65L 651.8512500000002-39.06Q 651.8512500000002-53.71  666.5012500000001-53.71L 666.5012500000001-53.71L 677.7312500000002-53.71Q 692.3812500000001-53.71  692.3812500000001-39.06L 692.3812500000001-39.06L 692.3812500000001-36.47L 683.1012500000002-32.08L 682.6212500000001-32.08L 682.6212500000001-39.06Q 682.6212500000001-44.92  677.7312500000002-44.92L 677.7312500000002-44.92L 666.5012500000001-44.92Q 661.6212500000001-44.92  661.6212500000001-39.06L 661.6212500000001-39.06L 661.6212500000001-14.65Q 661.6212500000001-8.79  666.5012500000001-8.79L 666.5012500000001-8.79L 677.7312500000002-8.79Q 682.6212500000001-8.79  682.6212500000001-14.65L 682.6212500000001-14.65L 682.6212500000001-17.24L 691.8912500000001-21.63L 692.3812500000001-21.63L 692.3812500000001-14.65Q 692.3812500000001 0  677.7312500000002 0L 677.7312500000002 0ZM 710.2070312500001-0.78Q 708.4970312500001-2.54  708.4970312500001-5Q 708.4970312500001-7.47  710.2070312500001-9.23Q 711.9170312500002-10.99  714.3570312500001-10.99Q 716.7970312500001-10.99  718.5070312500001-9.23Q 720.2170312500001-7.47  720.2170312500001-5Q 720.2170312500001-2.54  718.5070312500001-0.78Q 716.7970312500001 0.98  714.3570312500001 0.98Q 711.9170312500002 0.98  710.2070312500001-0.78Z" data-textpath="Innovations Inc." data-text-anchor="middle" data-font-size="100" data-letterspacing="0" data-side="left" data-offset="0.5" data-dx="0" data-dy="0" data-xmlspace="preserve" data-href="" data-font="Nova Square" data-font-src="/Content/clientfonts/novasquare.woff" data-font-scale="contain" transform="translate(0,0)" data-x="0" data-y="0" fill="url('#linearGradientSkgu6doxm1p')"></path>
        </g>
      </svg>
    </g>
  </g>
</svg>